<svg width="39" height="49" viewBox="0 0 39 49" fill="none" xmlns="http://www.w3.org/2000/svg">
<path d="M17.9738 1.01112L0.631402 15.1116C0.231921 15.4364 0 15.9239 0 16.4388C0 17.8734 1.65988 18.6707 2.77967 17.7738L17.9851 5.59625C18.7076 5.01761 19.7328 5.01038 20.4634 5.57878L36.2083 17.8281C37.3444 18.712 39 17.9024 39 16.4629C39 15.9337 38.7577 15.4336 38.3424 15.1056L20.4752 0.993427C19.7401 0.412855 18.7006 0.420208 17.9738 1.01112Z" fill="#00428C"/>
<path d="M33.1429 43.9084V44.9892C33.1429 45.5415 32.6951 45.9892 32.1429 45.9892H7.28571C6.73343 45.9892 6.28571 45.5415 6.28571 44.9892V34.7619C6.28571 34.2096 6.73343 33.7619 7.28571 33.7619H29.2143C29.7666 33.7619 30.2143 33.3142 30.2143 32.7619V31.7253C30.2143 31.173 29.7666 30.7253 29.2143 30.7253H7.28571C6.73343 30.7253 6.28571 30.2776 6.28571 29.7253V23.9472C6.28571 23.6303 6.4359 23.3322 6.69054 23.1436L18.5723 14.3436C18.914 14.0905 19.3783 14.0812 19.7299 14.3203L32.7053 23.1458C32.979 23.332 33.1429 23.6416 33.1429 23.9727V24.8241C33.1429 25.3763 33.5906 25.8241 34.1429 25.8241H36C36.5523 25.8241 37 25.3763 37 24.8241V22.7797C37 22.4501 36.8376 22.1417 36.5658 21.9552L19.7382 10.4085C19.3828 10.1646 18.9111 10.1759 18.5678 10.4365L3.3954 21.953C3.1463 22.1421 3 22.4368 3 22.7495V48C3 48.5523 3.44772 49 4 49H36C36.5523 49 37 48.5523 37 48V43.9084C37 43.3562 36.5523 42.9084 36 42.9084H34.1429C33.5906 42.9084 33.1429 43.3562 33.1429 43.9084Z" fill="#00428C"/>
</svg>
